<svg width="96" height="96" xmlns="http://www.w3.org/2000/svg">

 <g>
  <title>background</title>
  <rect fill="none" id="canvas_background" height="402" width="582" y="-1" x="-1"/>
 </g>
 <g>
  <title>Layer 1</title>
  <path fill="#3f4f85" id="svg_1" d="m48,4c-24.299999,0 -44,19.700001 -44,44c0,24.301003 19.700001,44 44,44c24.301003,0 44,-19.698997 44,-44c0,-24.299999 -19.698997,-44 -44,-44zm-36,44c0,-8.5 2.953,-16.306 7.879,-22.464001l50.585997,50.585003c-6.157997,4.925995 -13.964996,7.878998 -22.464996,7.878998c-19.882,0 -36,-16.117996 -36,-36zm64.121002,22.464996l-50.585003,-50.585997c6.158001,-4.926 13.964001,-7.879 22.464001,-7.879c19.882004,0 36,16.118 36,36c0,8.5 -2.953003,16.306999 -7.878998,22.464996z"/>
 </g>
</svg>