<svg width="512" height="512" xmlns="http://www.w3.org/2000/svg">

 <g>
  <title>background</title>
  <rect fill="none" id="canvas_background" height="402" width="582" y="-1" x="-1"/>
 </g>
 <g>
  <title>Layer 1</title>
  <path fill="#3f4f85" id="svg_1" d="m497.912994,497.912994c-18.782013,18.782013 -49.225006,18.782013 -68.007996,0l-84.862,-84.863007c-34.889008,22.382019 -76.130005,35.71701 -120.658997,35.71701c-123.915001,0 -224.384003,-100.454987 -224.384003,-224.384003s100.469002,-224.382996 224.384003,-224.382996c123.931,0 224.384003,100.452003 224.384003,224.382996c0,44.514008 -13.35199,85.770996 -35.717987,120.675995l84.863007,84.863007c18.781982,18.782013 18.781982,49.209015 -0.000031,67.990997zm-273.528992,-433.803993c-88.511002,0 -160.274002,71.747002 -160.274002,160.273003c0,88.525986 71.763992,160.274002 160.274002,160.274002c88.524994,0 160.27301,-71.748016 160.27301,-160.274002c0,-88.526001 -71.748016,-160.273003 -160.27301,-160.273003z"/>
 </g>
</svg>